<svg id="visual" preserveAspectRatio="none" xml:space="preserve" viewBox="0 0 900 600" width="900" height="600" xmlns="http://www.w3.org/2000/svg" xmlns:xlink="http://www.w3.org/1999/xlink" version="1.1"><rect x="0" y="0" width="900" height="600" fill="#222831"></rect><defs><linearGradient id="grad1_0" x1="33.3%" y1="0%" x2="100%" y2="100%"><stop offset="20%" stop-color="#00adb5" stop-opacity="1"></stop><stop offset="80%" stop-color="#00adb5" stop-opacity="1"></stop></linearGradient></defs><defs><linearGradient id="grad1_1" x1="33.3%" y1="0%" x2="100%" y2="100%"><stop offset="20%" stop-color="#00adb5" stop-opacity="1"></stop><stop offset="80%" stop-color="#2a657b" stop-opacity="1"></stop></linearGradient></defs><defs><linearGradient id="grad1_2" x1="33.3%" y1="0%" x2="100%" y2="100%"><stop offset="20%" stop-color="#222831" stop-opacity="1"></stop><stop offset="80%" stop-color="#2a657b" stop-opacity="1"></stop></linearGradient></defs><defs><linearGradient id="grad2_0" x1="0%" y1="0%" x2="66.7%" y2="100%"><stop offset="20%" stop-color="#00adb5" stop-opacity="1"></stop><stop offset="80%" stop-color="#00adb5" stop-opacity="1"></stop></linearGradient></defs><defs><linearGradient id="grad2_1" x1="0%" y1="0%" x2="66.7%" y2="100%"><stop offset="20%" stop-color="#2a657b" stop-opacity="1"></stop><stop offset="80%" stop-color="#00adb5" stop-opacity="1"></stop></linearGradient></defs><defs><linearGradient id="grad2_2" x1="0%" y1="0%" x2="66.7%" y2="100%"><stop offset="20%" stop-color="#2a657b" stop-opacity="1"></stop><stop offset="80%" stop-color="#222831" stop-opacity="1"></stop></linearGradient></defs><g transform="translate(900, 0)"><path d="M0 324.5C-45.6 323.2 -91.3 321.9 -124.2 299.8C-157.1 277.7 -177.3 234.9 -202.2 202.2C-227.2 169.6 -256.9 147.2 -278.1 115.2C-299.3 83.2 -311.9 41.6 -324.5 0L0 0Z" fill="#2c4557"></path><path d="M0 216.3C-30.4 215.5 -60.8 214.6 -82.8 199.9C-104.7 185.1 -118.2 156.6 -134.8 134.8C-151.5 113.1 -171.3 98.1 -185.4 76.8C-199.5 55.5 -207.9 27.7 -216.3 0L0 0Z" fill="#1a889c"></path><path d="M0 108.2C-15.2 107.7 -30.4 107.3 -41.4 99.9C-52.4 92.6 -59.1 78.3 -67.4 67.4C-75.7 56.5 -85.6 49.1 -92.7 38.4C-99.8 27.7 -104 13.9 -108.2 0L0 0Z" fill="#00adb5"></path></g><g transform="translate(0, 600)"><path d="M0 -324.5C47.6 -320.5 95.2 -316.5 118.6 -286.4C142.1 -256.4 141.5 -200.3 173.2 -173.2C205 -146.2 269.2 -148.2 299.8 -124.2C330.4 -100.1 327.5 -50.1 324.5 0L0 0Z" fill="#2c4557"></path><path d="M0 -216.3C31.7 -213.7 63.4 -211 79.1 -190.9C94.7 -170.9 94.3 -133.5 115.5 -115.5C136.7 -97.5 179.5 -98.8 199.9 -82.8C220.3 -66.8 218.3 -33.4 216.3 0L0 0Z" fill="#1a889c"></path><path d="M0 -108.2C15.9 -106.8 31.7 -105.5 39.5 -95.5C47.4 -85.5 47.2 -66.8 57.7 -57.7C68.3 -48.7 89.7 -49.4 99.9 -41.4C110.1 -33.4 109.2 -16.7 108.2 0L0 0Z" fill="#00adb5"></path></g></svg>